<svg xmlns="http://www.w3.org/2000/svg" viewBox="0 0 1024 1024">
  <defs>
    <linearGradient id="bg" x1="0" y1="0" x2="0" y2="1">
      <stop offset="0" stop-color="#212c40"/>
      <stop offset="0.55" stop-color="#171c27"/>
      <stop offset="1" stop-color="#10131a"/>
    </linearGradient>
    <radialGradient id="glow" cx="0.5" cy="0.42" r="0.62">
      <stop offset="0" stop-color="#6cc3de" stop-opacity="0.34"/>
      <stop offset="0.55" stop-color="#6cc3de" stop-opacity="0.06"/>
      <stop offset="1" stop-color="#6cc3de" stop-opacity="0"/>
    </radialGradient>
    <clipPath id="round"><rect width="1024" height="1024" rx="224" ry="224"/></clipPath>
    <style>
      .kn1,.kn2,.kn5{fill:#eef1f4;}
      .kn1,.kn2,.kn3,.kn4,.kn5{stroke:#0c0f15;stroke-linecap:round;}
      .kn1,.kn2,.kn3,.kn4{stroke-linejoin:round;}
      .kn1,.kn5{stroke-width:14px;}.kn2{stroke-width:13.25px;}
      .kn3{stroke-width:5px;}.kn4{stroke-width:8px;}
    </style>
  </defs>
  <g clip-path="url(#round)">
    <rect width="1024" height="1024" fill="url(#bg)"/>
    <rect width="1024" height="1024" fill="url(#glow)"/>
    <!-- Cburnett knight (viewBox 309.81 x 346.95), scaled ~560 tall, centred -->
    <g transform="translate(262,232) scale(1.6141)">
      <path class="kn1" d="M148.85,40.06c15.28,1.46,15.64.12,29,4.22C261,69.74,307,150.44,302.51,339.95h-241c0-94.31,124.8-68.11,103.84-220.06"/>
      <path class="kn2" d="M102.69,51.39c2.65-12.69,7.79-27.94,15-38.65,1.5-2.25,3.34-4.6,5.8-5.11S128,8.5,129.87,10c9.25,7.32,15.66,18.62,17.68,31.13"/>
      <path class="kn1" d="M174.86,157.33c-11.75,13.12-25.34,24.55-39.6,34.83-17.39,12.53-34.63,23.47-48.89,40.07a96.93,96.93,0,0,1-14.74,13.7c-3.74,2.76-12.24,4.6-16.83,2.17-3.63-1.93-9-6.56-12.07-9s-6.1-1.09-9.78-1c-7.75.17-7.84-.74-13.9-6.07-19-16.74-13-48.16.49-64.81,8.35-10.31,22.36-33.39,36.73-55.5,3.31-5.08,4.37-11.14,5.6-17,1.3-6.14,4.19-10.29,8.42-14.95,13.51-14.86,57-37.93,66.06-41.47,2.58-1,4.16-1.33,5.41-3.77a64.24,64.24,0,0,1,5-8c5.72-8,13-15.12,21.78-19.62,10.46.61,10.29,38.1,10.29,38.1"/>
      <path class="kn1" d="M39.88,236.64a101.51,101.51,0,0,0,17.2-25.56"/>
      <path class="kn3" d="M37.17,204.3a5.24,5.24,0,1,1-4.93-5.53A5.24,5.24,0,0,1,37.17,204.3Z"/>
      <path class="kn4" d="M102.86,99c-5.39,6.8-11.6,10.86-13.87,9.07s.26-8.77,5.65-15.57,11.6-10.86,13.87-9.07S108.25,92.18,102.86,99Z"/>
      <path class="kn5" d="M181.38,82.16s-3.68-2,3.12,1.44c26.37,13.44,89.89,56.25,81.94,232.22"/>
    </g>
  </g>
</svg>
