<svg xmlns="http://www.w3.org/2000/svg" viewBox="0 0 1024 1024">
  <defs>
    <linearGradient id="bg" x1="0" y1="0" x2="0" y2="1">
      <stop offset="0" stop-color="#212c40"/>
      <stop offset="0.55" stop-color="#171c27"/>
      <stop offset="1" stop-color="#10131a"/>
    </linearGradient>
    <radialGradient id="glow" cx="0.5" cy="0.42" r="0.62">
      <stop offset="0" stop-color="#6cc3de" stop-opacity="0.34"/>
      <stop offset="0.55" stop-color="#6cc3de" stop-opacity="0.06"/>
      <stop offset="1" stop-color="#6cc3de" stop-opacity="0"/>
    </radialGradient>
    <clipPath id="round"><rect width="1024" height="1024" rx="224" ry="224"/></clipPath>
  </defs>
  <g clip-path="url(#round)">
    <rect width="1024" height="1024" fill="url(#bg)"/>
    <rect width="1024" height="1024" fill="url(#glow)"/>
    <!-- friendly smiley pawn -->
    <g fill="#eef1f4" stroke="#0c0f15" stroke-width="14" stroke-linejoin="round" stroke-linecap="round">
      <rect x="334" y="792" width="356" height="62" rx="31"/>
      <path d="M448 575 C 432 680 392 745 358 800 L 666 800 C 632 745 592 680 576 575 Z"/>
      <rect x="406" y="535" width="212" height="46" rx="23"/>
      <circle cx="512" cy="395" r="160"/>
    </g>
    <g fill="#f0a3a3" opacity="0.5">
      <circle cx="446" cy="432" r="26"/>
      <circle cx="578" cy="432" r="26"/>
    </g>
    <g fill="#16202c">
      <circle cx="468" cy="378" r="22"/>
      <circle cx="556" cy="378" r="22"/>
    </g>
    <path d="M460 426 Q 512 488 564 426" fill="none" stroke="#16202c" stroke-width="18" stroke-linecap="round"/>
  </g>
</svg>
