<svg xmlns="http://www.w3.org/2000/svg" viewBox="0 0 128 128">
  <defs>
    <clipPath id="bc"><rect x="8" y="8" width="112" height="112" rx="16"/></clipPath>
  </defs>
  <g clip-path="url(#bc)">
    <rect x="8" y="8" width="112" height="112" fill="#e6e8e3"/>
    <g fill="#75919e">
      <rect x="36" y="8" width="28" height="28"/>
      <rect x="92" y="8" width="28" height="28"/>
      <rect x="8" y="36" width="28" height="28"/>
      <rect x="64" y="36" width="28" height="28"/>
      <rect x="36" y="64" width="28" height="28"/>
      <rect x="92" y="64" width="28" height="28"/>
      <rect x="8" y="92" width="28" height="28"/>
      <rect x="64" y="92" width="28" height="28"/>
    </g>
    <g fill="#f7f8f5" stroke="#14181c" stroke-opacity="0.35" stroke-width="1.5">
      <circle cx="50" cy="40" r="6.5"/>
      <path d="M44 46 C43 53 40 57 37.5 60 L62.5 60 C60 57 57 53 56 46 Z"/>
      <rect x="36" y="58" width="28" height="6" rx="3"/>
    </g>
    <g fill="#2b333a">
      <circle cx="78" cy="68" r="6.5"/>
      <path d="M72 74 C71 81 68 85 65.5 88 L90.5 88 C88 85 85 81 84 74 Z"/>
      <rect x="64" y="86" width="28" height="6" rx="3"/>
    </g>
  </g>
  <rect x="8" y="8" width="112" height="112" rx="16" fill="none" stroke="#000000" stroke-opacity="0.18" stroke-width="2.5"/>
</svg>
